<svg height="209pt" preserveAspectRatio="xMidYMid meet" viewBox="0 0 209 209" width="209pt" xmlns="http://www.w3.org/2000/svg"><path d="m882 2074c-326-56-592-245-747-528-47-87-97-225-110-306-4-25-9-54-11-65-13-65-1-287 20-360 2-5 6-23 10-40 64-263 278-525 535-655 91-45 130-59 246-87 76-18 300-24 392-11 206 30 439 156 587 317 17 18 41 44 52 56 38 41 114 171 148 252 93 220 107 460 40 690-28 96-60 169-114 258-50 83-62 98-166 200-139 137-315 232-499 270-102 21-289 26-383 9z" transform="matrix(.1 0 0 -.1 0 209)"/></svg>